<svg xmlns="http://www.w3.org/2000/svg" width="512" height="512" fill="none"><path fill-rule="evenodd" d="M256.531 366.205l.099.119h-.201l.102-.119zm-24.322-211.536H109.287l37.636-48.632h220.039l37.636 48.632H280.841v183.129l-24.31 28.407-24.319-28.416h-.003v-183.12zM42.747 226.844L.003 176.509 111.391 33.222h290.95l93.848 121.204h-61.506l-56.191-72.573H135.183l-72.528 93.301 2.595 3.058h142.279v48.632H42.747zm427.909 0L256.701 478.781 63.349 251.099h63.802l129.55 152.553 150.153-176.808H305.542v-48.632h206.461l-41.299 48.632h-.048z" fill="#000"/></svg>